<?xml version="1.0" encoding="UTF-8"?>
<svg version="1.1" xmlns="http://www.w3.org/2000/svg" width="192" height="192">
<path d="M0 0 C63.36 0 126.72 0 192 0 C192 63.36 192 126.72 192 192 C128.64 192 65.28 192 0 192 C0 128.64 0 65.28 0 0 Z " fill="#EBF7FB" transform="translate(0,0)"/>
<path d="M0 0 C3.5625 0.1875 3.5625 0.1875 5.5625 2.1875 C5.81223661 11.70127575 4.94645711 22.11156433 -0.4375 30.1875 C-0.11701433 35.63575645 1.5245581 40.20388661 3.5625 45.1875 C4.2712876 46.95815156 4.97961051 48.7289892 5.6875 50.5 C6.18636719 51.73169922 6.18636719 51.73169922 6.6953125 52.98828125 C7.3708058 54.70135659 7.98018408 56.44055224 8.5625 58.1875 C5.36158588 64.04782022 0.69900568 68.9072936 -5.5 71.4375 C-9.21594461 72.38625182 -11.79094936 72.40301688 -15.4375 71.1875 C-15.4375 70.5275 -15.4375 69.8675 -15.4375 69.1875 C-16.38625 69.22875 -17.335 69.27 -18.3125 69.3125 C-21.4375 69.1875 -21.4375 69.1875 -23.4375 67.1875 C-27.53570379 67.65586615 -31.49303483 69.01108056 -35.4375 70.1875 C-37.108125 70.6825 -37.108125 70.6825 -38.8125 71.1875 C-41.57639061 71.90142681 -41.57639061 71.90142681 -42.4375 74.1875 C-40.1275 74.1875 -37.8175 74.1875 -35.4375 74.1875 C-35.4375 74.5175 -35.4375 74.8475 -35.4375 75.1875 C-39.8925 75.6825 -39.8925 75.6825 -44.4375 76.1875 C-44.7675 75.5275 -45.0975 74.8675 -45.4375 74.1875 C-44.9425 73.1975 -44.9425 73.1975 -44.4375 72.1875 C-46.0875 71.8575 -47.7375 71.5275 -49.4375 71.1875 C-49.4375 70.5275 -49.4375 69.8675 -49.4375 69.1875 C-50.4275 69.1875 -51.4175 69.1875 -52.4375 69.1875 C-53.81618281 67.55814759 -55.15024093 65.89000393 -56.4375 64.1875 C-57.0975 63.8575 -57.7575 63.5275 -58.4375 63.1875 C-58.63108542 57.4251072 -58.0608031 52.55222249 -56.5625 47 C-56.38847656 46.31486328 -56.21445313 45.62972656 -56.03515625 44.92382812 C-55.27835693 42.01155223 -54.4709111 39.26229282 -53.2421875 36.51171875 C-51.61467879 31.81090475 -54.02802842 27.33007017 -55.5625 22.8125 C-57.59468725 16.26516216 -58.12185643 12.63277452 -55.0625 6.375 C-53.4375 4.1875 -53.4375 4.1875 -50.4375 2.1875 C-42.47891024 1.12709884 -36.41235454 1.91610442 -29.65625 6.2890625 C-27.40440095 7.46766002 -27.40440095 7.46766002 -24.8515625 6.43359375 C-24.05492187 6.02238281 -23.25828125 5.61117187 -22.4375 5.1875 C-17.08836614 2.51293307 -12.67635326 1.74067689 -6.6953125 1.3984375 C-3.56896585 1.10635667 -3.54217925 0.19320978 0 0 Z " fill="#5E82CF" transform="translate(122.4375,58.8125)"/>
<path d="M0 0 C0.99 0 1.98 0 3 0 C3.12117188 0.95261719 3.24234375 1.90523438 3.3671875 2.88671875 C3.53476563 4.14097656 3.70234375 5.39523438 3.875 6.6875 C4.03742188 7.92886719 4.19984375 9.17023438 4.3671875 10.44921875 C4.92478369 13.57795295 5.69008123 16.12148102 7 19 C8.65 18.34 10.3 17.68 12 17 C11.649375 18.093125 11.29875 19.18625 10.9375 20.3125 C10.52584987 23.58250951 10.9143965 24.85560855 12.62109375 27.734375 C17.40652619 33.73897307 22.69636427 38.63365185 29 43 C30.99763047 42.25191349 30.99763047 42.25191349 33 41 C34.29920746 37.45411499 34.29920746 37.45411499 35 34 C38.69541586 33.04975021 41.30458414 33.04975021 45 34 C46.32597623 40.38879457 46.32597623 40.38879457 45 42.875 C42.1035018 44.50428024 39.27425012 44.69110848 36 45 C36 45.66 36 46.32 36 47 C40.45598822 49.62789049 43.98322317 50.38707033 49.046875 50.59375 C51 51 51 51 53 54 C48.85569318 56.07215341 43.43313459 54.76629087 39 54 C36.79296875 53.00390625 36.79296875 53.00390625 35 51.875 C32.30653204 49.80483069 32.30653204 49.80483069 30 50.0625 C28.32112822 50.84947115 26.65841708 51.67079146 25 52.5 C19.35437803 54.98065208 12.14165136 56.02348415 6.2421875 54.1015625 C3.94275736 52.97187731 2.59443333 51.99304166 1 50 C-1.62282708 42.13151875 -0.05684455 34.90601296 3.22265625 27.5078125 C4.73160771 22.63973794 2.45727603 18.28330914 0.875 13.625 C-0.73295588 8.52928371 -1.43421968 5.13928717 0 0 Z " fill="#3B4C87" transform="translate(66,68)"/>
<path d="M0 0 C6.71532476 3.24188092 6.71532476 3.24188092 7.73046875 5.9453125 C8.15364583 7.96354167 8.57682292 9.98177083 9 12 C10.5778125 12.061875 10.5778125 12.061875 12.1875 12.125 C17.25168537 13.28727205 18.27763966 14.66123821 21 19 C21.21912027 22.50592424 18.76728111 25.14954034 16.53515625 27.74609375 C13.99143068 29.82379326 11.18081255 29.75993868 8 30 C5.68915881 31.96784402 5.68915881 31.96784402 5.125 35.5 C4 39 4 39 1.9296875 40.21875 C1.29289062 40.4765625 0.65609375 40.734375 0 41 C-7.28896438 35.68925142 -14.28583779 29.80442278 -19 22 C-19.10808996 18.38258927 -16.70986665 16.24898109 -14.35473633 13.68457031 C-13.86642334 13.16991211 -13.37811035 12.65525391 -12.875 12.125 C-12.38088623 11.59487305 -11.88677246 11.06474609 -11.37768555 10.51855469 C-7.79907635 6.7248442 -4.07603043 3.26082434 0 0 Z " fill="#E5F0F3" transform="translate(95,71)"/>
<path d="M0 0 C0.33 0 0.66 0 1 0 C1.16435547 1.03060547 1.16435547 1.03060547 1.33203125 2.08203125 C1.49058594 2.98308594 1.64914063 3.88414063 1.8125 4.8125 C1.96332031 5.70582031 2.11414063 6.59914063 2.26953125 7.51953125 C3.08020963 10.27236958 3.67678254 11.34206754 6 13 C13.54247391 14.99614319 20.39009101 13.87437582 27.25 10.3125 C30 9 30 9 32 9.125 C34 10 34 10 36.5 11.5 C42.59175544 14.11075233 49.05643388 14.73589153 55.5 13.125 C59.10493325 10.06080674 60.43487911 6.3915451 62 2 C64 3 64 3 66 6 C65.63843977 11.24262337 61.74014546 15.29203478 58.125 18.75 C53.69000836 21.94319398 50.44726614 23 45 23 C44.01 22.67 43.02 22.34 42 22 C42 21.34 42 20.68 42 20 C41.05125 20.04125 40.1025 20.0825 39.125 20.125 C36 20 36 20 34 18 C29.90179621 18.46836615 25.94446517 19.82358056 22 21 C20.88625 21.33 19.7725 21.66 18.625 22 C15.86110939 22.71392681 15.86110939 22.71392681 15 25 C17.31 25 19.62 25 22 25 C22 25.33 22 25.66 22 26 C19.03 26.33 16.06 26.66 13 27 C12.67 26.34 12.34 25.68 12 25 C12.33 24.34 12.66 23.68 13 23 C11.35 22.67 9.7 22.34 8 22 C8 21.34 8 20.68 8 20 C7.01 20 6.02 20 5 20 C3.62131719 18.37064759 2.28725907 16.70250393 1 15 C0.34 14.67 -0.32 14.34 -1 14 C-1.08333357 9.1666528 -0.95261487 4.76307437 0 0 Z " fill="#B2C3D5" transform="translate(65,108)"/>
<path d="M0 0 C2.98184351 1.30693567 4.66583135 2.54082049 6.625 5.125 C10.46306549 9.82366264 15.19352072 13.3428962 20 17 C13.97884023 21.73091125 9.61938123 22.75207485 2 22 C-1.0625 21 -1.0625 21 -3 19 C-4.51062951 13.05819058 -3.86393451 8.78800717 -2 3 C-1.34 2.01 -0.68 1.02 0 0 Z " fill="#DAE6EC" transform="translate(73,97)"/>
<path d="M0 0 C1.90234375 0.828125 1.90234375 0.828125 4.65234375 2.328125 C4.65234375 2.988125 4.65234375 3.648125 4.65234375 4.328125 C3.1484375 5.80859375 3.1484375 5.80859375 1.08984375 7.515625 C-3.84735183 11.71618749 -8.73600157 15.91064298 -12.34765625 21.328125 C-13.00765625 21.328125 -13.66765625 21.328125 -14.34765625 21.328125 C-18.18334194 16.8787296 -18.51878849 10.99993625 -18.34765625 5.328125 C-17.484375 2.546875 -17.484375 2.546875 -16.34765625 0.328125 C-11.76644098 -1.96248263 -4.83119419 -1.38263794 0 0 Z " fill="#E2ECF1" transform="translate(87.34765625,65.671875)"/>
<path d="M0 0 C4.04984572 6.07476858 5.47337387 11.81602091 4.6171875 19.0546875 C3.84038809 21.50308056 3.09008246 22.50049272 1 24 C-6.28140662 25.30571266 -11.79651646 23.74549949 -18 20 C-17.01 18.515 -17.01 18.515 -16 17 C-13.67284 16.62599214 -11.33882138 16.29235267 -9 16 C-6.6600556 14.09315715 -6.6600556 14.09315715 -6.75 10.8125 C-5.78128319 5.88818954 -3.46161721 3.48278918 0 0 Z " fill="#D0DBE9" transform="translate(118,95)"/>
<path d="M0 0 C0.2475 0.804375 0.495 1.60875 0.75 2.4375 C1.72238859 5.171081 1.72238859 5.171081 4.125 5.8125 C4.74375 5.874375 5.3625 5.93625 6 6 C6.59244521 12.66500865 4.48322845 17.86952975 2 24 C-2.8885126 19.1114874 -4.0193281 17.86470329 -5 11 C-6.15866921 9.63363845 -6.15866921 9.63363845 -9.3125 9.625 C-12.90101331 9.01677741 -14.46808669 8.53191331 -17 6 C-17 5.34 -17 4.68 -17 4 C-11.15439723 1.36536213 -6.45512034 -0.56131481 0 0 Z " fill="#D8E7EF" transform="translate(117,64)"/>
<path d="M0 0 C6.71532476 3.24188092 6.71532476 3.24188092 7.73046875 5.9453125 C8.15364583 7.96354167 8.57682292 9.98177083 9 12 C10.5778125 12.061875 10.5778125 12.061875 12.1875 12.125 C17.25168537 13.28727205 18.27763966 14.66123821 21 19 C20.8125 21.375 20.8125 21.375 20 23 C19.01 23 18.02 23 17 23 C17 22.01 17 21.02 17 20 C15.35 20 13.7 20 12 20 C12 19.34 12 18.68 12 18 C11.401875 17.979375 10.80375 17.95875 10.1875 17.9375 C8 17 8 17 6.25 13.5625 C5 10 5 10 5 8 C0.49675773 7.91812287 -1.88497239 8.11115866 -5.46484375 10.96484375 C-12.01690518 17.48006694 -12.01690518 17.48006694 -15 26 C-17.0625 24.25 -17.0625 24.25 -19 22 C-18.85900322 17.73249733 -15.64938437 15.04906654 -12.875 12.125 C-12.38088623 11.59487305 -11.88677246 11.06474609 -11.37768555 10.51855469 C-7.79907635 6.7248442 -4.07603043 3.26082434 0 0 Z " fill="#CCD7E5" transform="translate(95,71)"/>
<path d="M0 0 C2.78381553 1.1226286 5.25488496 2.45654184 7.84765625 3.9609375 C10.82847498 5.39995344 12.87184243 4.81927936 16 4 C18.375 4.9375 18.375 4.9375 20 6 C18.35 6.33 16.7 6.66 15 7 C15.495 9.475 15.495 9.475 16 12 C13.66666667 12 11.33333333 12 9 12 C3.28342071 16.18286289 -1.68885137 21.39550678 -6 27 C-6.33 26.01 -6.66 25.02 -7 24 C-7.66 23.67 -8.32 23.34 -9 23 C-6.71643754 20.65861457 -4.42186626 18.32833018 -2.125 16 C-1.47402344 15.33226563 -0.82304688 14.66453125 -0.15234375 13.9765625 C0.47285156 13.34492187 1.09804687 12.71328125 1.7421875 12.0625 C2.3182373 11.47597656 2.89428711 10.88945313 3.48779297 10.28515625 C5 9 5 9 7 9 C7 8.34 7 7.68 7 7 C0.11997829 4.37903935 -6.72176039 4.81829638 -14 5 C-14.33 6.65 -14.66 8.3 -15 10 C-15.33 9.01 -15.66 8.02 -16 7 C-16.66 7 -17.32 7 -18 7 C-15.00944407 -1.74162504 -8.16191161 -0.9667868 0 0 Z " fill="#5883CF" transform="translate(85,61)"/>
<path d="M0 0 C3.5625 0.1875 3.5625 0.1875 5.5625 2.1875 C5.78237081 10.5635308 4.96530441 19.45385362 1.5625 27.1875 C0.9025 27.8475 0.2425 28.5075 -0.4375 29.1875 C-1.4275 28.8575 -2.4175 28.5275 -3.4375 28.1875 C-3.23253906 27.54683594 -3.02757813 26.90617187 -2.81640625 26.24609375 C-1.24922636 21.21462149 -0.00707826 16.42761997 0.5625 11.1875 C-1.9125 10.6925 -1.9125 10.6925 -4.4375 10.1875 C-4.7675 8.5375 -5.0975 6.8875 -5.4375 5.1875 C-6.08976562 5.331875 -6.74203125 5.47625 -7.4140625 5.625 C-12.16370177 6.63377294 -16.55159188 7.44465306 -21.4375 7.1875 C-21.7675 6.5275 -22.0975 5.8675 -22.4375 5.1875 C-17.1401617 2.47997154 -12.62758835 1.73788653 -6.6953125 1.3984375 C-3.56896585 1.10635667 -3.54217925 0.19320978 0 0 Z " fill="#4CB4E0" transform="translate(122.4375,58.8125)"/>
<path d="M0 0 C3.27275026 0 5.846632 0.29925156 9 1 C10.32597623 7.38879457 10.32597623 7.38879457 9 9.875 C6.1035018 11.50428024 3.27425012 11.69110848 0 12 C0 12.66 0 13.32 0 14 C4.45598822 16.62789049 7.98322317 17.38707033 13.046875 17.59375 C15 18 15 18 17 21 C12.80928983 23.09535509 7.46576734 21.80252787 3 21 C-0.31269444 19.74718213 -3.33114392 18.3518898 -6 16 C-6.73828125 13.83203125 -6.73828125 13.83203125 -7 12 C-6.34 12 -5.68 12 -5 12 C-3.03571772 8.49235307 -2.09048815 4.85305811 -1 1 C-0.67 0.67 -0.34 0.34 0 0 Z " fill="#3F478D" transform="translate(102,101)"/>
<path d="M0 0 C1.125 1.75 1.125 1.75 2 4 C1.34362679 5.33843059 0.67527324 6.67100479 0 8 C-1.03019718 13.1094457 -1.95609765 18.41804865 1 23 C5.32176457 24.44058819 9.47958695 24.43395965 14 24 C16.87146994 22.63002843 16.87146994 22.63002843 19 21 C19.99 21 20.98 21 22 21 C21.8125 22.8125 21.8125 22.8125 21 25 C17.36464896 27.64982499 14.45482405 28.47725176 10 28.8125 C8.989375 28.90144531 7.97875 28.99039063 6.9375 29.08203125 C3.04803969 28.973416 0.25894112 28.0341302 -2.75 25.5625 C-6.18768058 21.26539927 -5.40956023 15.18305536 -5 10 C-4.03958896 6.12093724 -2.87675572 2.87675572 0 0 Z " fill="#0F3164" transform="translate(71,94)"/>
<path d="M0 0 C5.94 0.33 11.88 0.66 18 1 C18 1.99 18 2.98 18 4 C15.36 4 12.72 4 10 4 C10 5.32 10 6.64 10 8 C12.31 8 14.62 8 17 8 C17 8.99 17 9.98 17 11 C14.36 11 11.72 11 9 11 C9 12.98 9 14.96 9 17 C8.01 17 7.02 17 6 17 C5.67 12.71 5.34 8.42 5 4 C4.67 4 4.34 4 4 4 C3.67 8.29 3.34 12.58 3 17 C2.01 17 1.02 17 0 17 C0 11.33333333 0 5.66666667 0 0 Z " fill="#74879F" transform="translate(97,139)"/>
<path d="M0 0 C1.6266848 0.28211877 3.25132896 0.57602375 4.875 0.875 C5.77992187 1.03742188 6.68484375 1.19984375 7.6171875 1.3671875 C10 2 10 2 12 4 C12.144375 5.11375 12.28875 6.2275 12.4375 7.375 C12.99431773 10.96338094 13.59615375 12.38712365 16 15 C15.01 15 14.02 15 13 15 C12.67 15.66 12.34 16.32 12 17 C11.34 16.01 10.68 15.02 10 14 C8.845 13.835 7.69 13.67 6.5 13.5 C5.345 13.335 4.19 13.17 3 13 C0.70986347 9.5647952 0.82157027 8.014669 1 4 C0.34 4 -0.32 4 -1 4 C-0.67 2.68 -0.34 1.36 0 0 Z " fill="#5985CD" transform="translate(101,71)"/>
<path d="M0 0 C2.98184351 1.30693567 4.66583135 2.54082049 6.625 5.125 C10.46306549 9.82366264 15.19352072 13.3428962 20 17 C16.63068814 20.00831416 16.63068814 20.00831416 13.92578125 19.97265625 C11.28885918 18.6408234 10.58578605 17.01244175 9.1875 14.4375 C7.74624143 11.97362478 7.74624143 11.97362478 6 10 C2.24356576 9.24586647 2.24356576 9.24586647 -1 10 C-1.66 11.65 -2.32 13.3 -3 15 C-3.95721871 11.96541304 -4.00893515 10.00458518 -3.1875 6.9375 C-3.01605469 6.26589844 -2.84460938 5.59429687 -2.66796875 4.90234375 C-2 3 -2 3 0 0 Z " fill="#BAC8D8" transform="translate(73,97)"/>
<path d="M0 0 C2.12038635 2.61514317 4.13091744 5.19637616 6 8 C11.80310772 9.93436924 18.68315468 10.06931322 24.25 7.5 C25.1575 7.005 26.065 6.51 27 6 C31.67493768 5.35614631 35.75780243 5.87890122 40 8 C39.67 8.99 39.34 9.98 39 11 C38.443125 10.855625 37.88625 10.71125 37.3125 10.5625 C36.549375 10.376875 35.78625 10.19125 35 10 C34.21625 9.773125 33.4325 9.54625 32.625 9.3125 C28.03189406 8.76570167 24.75791902 10.49472066 21 13 C20.13375 13.165 19.2675 13.33 18.375 13.5 C17.59125 13.665 16.8075 13.83 16 14 C15.67 14.66 15.34 15.32 15 16 C17.31 16 19.62 16 22 16 C22 16.33 22 16.66 22 17 C19.03 17.33 16.06 17.66 13 18 C12.67 17.34 12.34 16.68 12 16 C12.33 15.34 12.66 14.68 13 14 C11.35 13.67 9.7 13.34 8 13 C8 12.34 8 11.68 8 11 C7.01 11 6.02 11 5 11 C0.12195122 6.12195122 0.12195122 6.12195122 -0.3125 2.125 C-0.209375 1.42375 -0.10625 0.7225 0 0 Z " fill="#CFDEE6" transform="translate(65,117)"/>
<path d="M0 0 C2.98764927 3.72244949 3.84072517 6.14211775 4 11 C3.39256308 13.35587022 2.61746195 15.58255599 1.76171875 17.859375 C0.81206742 20.52813873 0.45413242 23.21032942 0 26 C-0.66666667 27.33333333 -1.33333333 28.66666667 -2 30 C-2 31.32 -2 32.64 -2 34 C-3.32 34 -4.64 34 -6 34 C-7.364 27.676 -7.364 27.676 -5.6875 24.5625 C-5.130625 23.716875 -4.57375 22.87125 -4 22 C-1.78545717 14.8353026 -0.9793325 7.41792279 0 0 Z " fill="#CFE1EA" transform="translate(128,62)"/>
<path d="M0 0 C1.90234375 0.828125 1.90234375 0.828125 4.65234375 2.328125 C4.65234375 2.988125 4.65234375 3.648125 4.65234375 4.328125 C2.69086501 5.71750577 0.69067799 7.0541661 -1.34765625 8.328125 C-2.00765625 7.668125 -2.66765625 7.008125 -3.34765625 6.328125 C-5.75311263 5.12539681 -7.29762578 5.22741028 -9.97265625 5.265625 C-10.78992188 5.27464844 -11.6071875 5.28367187 -12.44921875 5.29296875 C-13.07570313 5.30457031 -13.7021875 5.31617187 -14.34765625 5.328125 C-14.34765625 5.988125 -14.34765625 6.648125 -14.34765625 7.328125 C-15.00765625 7.328125 -15.66765625 7.328125 -16.34765625 7.328125 C-16.34765625 10.298125 -16.34765625 13.268125 -16.34765625 16.328125 C-16.67765625 16.328125 -17.00765625 16.328125 -17.34765625 16.328125 C-17.57150007 14.60089772 -17.77605594 12.87116493 -17.97265625 11.140625 C-18.08867188 10.17769531 -18.2046875 9.21476562 -18.32421875 8.22265625 C-18.34990482 5.05042657 -17.80924685 3.12702128 -16.34765625 0.328125 C-11.76644098 -1.96248263 -4.83119419 -1.38263794 0 0 Z " fill="#C9D2E3" transform="translate(87.34765625,65.671875)"/>
<path d="M0 0 C0.2475 0.804375 0.495 1.60875 0.75 2.4375 C1.72238859 5.171081 1.72238859 5.171081 4.125 5.8125 C4.74375 5.874375 5.3625 5.93625 6 6 C6 8.31 6 10.62 6 13 C5.67 11.68 5.34 10.36 5 9 C4.4225 8.87625 3.845 8.7525 3.25 8.625 C1 8 1 8 -0.8125 6.875 C-4.09627586 5.56148966 -6.60424078 6.25910708 -10 7 C-10.99 7.66 -11.98 8.32 -13 9 C-15 7.625 -15 7.625 -17 6 C-17 5.34 -17 4.68 -17 4 C-11.15439723 1.36536213 -6.45512034 -0.56131481 0 0 Z " fill="#C1D3E2" transform="translate(117,64)"/>
<path d="M0 0 C0.99 0 1.98 0 3 0 C3.33 3.96 3.66 7.92 4 12 C5.32 12.33 6.64 12.66 8 13 C10.58926331 10.41073669 10.37398043 8.97294721 10.625 5.375 C10.69976562 4.37210938 10.77453125 3.36921875 10.8515625 2.3359375 C10.90054688 1.56507813 10.94953125 0.79421875 11 0 C11.99 0 12.98 0 14 0 C14.77113723 9.78487466 14.77113723 9.78487466 11.9375 14.25 C9 16 9 16 5.3125 16 C2 15 2 15 0 12 C-0.1953125 9.08203125 -0.1953125 9.08203125 -0.125 5.8125 C-0.10695313 4.72582031 -0.08890625 3.63914063 -0.0703125 2.51953125 C-0.04710938 1.68808594 -0.02390625 0.85664063 0 0 Z " fill="#213760" transform="translate(65,140)"/>
<path d="M0 0 C2 1 2 1 4 4 C3.63843977 9.24262337 -0.25985454 13.29203478 -3.875 16.75 C-8.30999164 19.94319398 -11.55273386 21 -17 21 C-17.99 20.67 -18.98 20.34 -20 20 C-20 19.34 -20 18.68 -20 18 C-14.74565027 16.06418694 -9.48821566 15.03831107 -4 14 C-2.68 9.38 -1.36 4.76 0 0 Z " fill="#C7D5E2" transform="translate(127,110)"/>
<path d="M0 0 C3.27275026 0 5.846632 0.29925156 9 1 C10.32296047 7.37426409 10.32296047 7.37426409 9 9.9375 C6.00926074 11.52633023 3.31998061 11.18792343 0 11 C1.32 10.67 2.64 10.34 4 10 C4 9.34 4 8.68 4 8 C2.35 7.67 0.7 7.34 -1 7 C-1 7.66 -1 8.32 -1 9 C-1.66 8.67 -2.32 8.34 -3 8 C-1.125 1.125 -1.125 1.125 0 0 Z " fill="#5352A1" transform="translate(102,101)"/>
<path d="M0 0 C0.99 0 1.98 0 3 0 C3.12117188 0.95261719 3.24234375 1.90523438 3.3671875 2.88671875 C3.53476563 4.14097656 3.70234375 5.39523438 3.875 6.6875 C4.03742188 7.92886719 4.19984375 9.17023438 4.3671875 10.44921875 C4.92478369 13.57795295 5.69008123 16.12148102 7 19 C8.65 18.34 10.3 17.68 12 17 C11.67 18.65 11.34 20.3 11 22 C7.6875 21.9375 7.6875 21.9375 4 21 C2.53771701 18.47882243 1.7754504 16.72221051 1 14 C0.5875 12.845 0.175 11.69 -0.25 10.5 C-1.0748951 6.65048954 -0.7823103 3.83332045 0 0 Z " fill="#424B8F" transform="translate(66,68)"/>
<path d="M0 0 C0.625 1.8125 0.625 1.8125 1 4 C-1 7 -1 7 -3.609375 7.73046875 C-5.16398437 7.95669922 -5.16398437 7.95669922 -6.75 8.1875 C-7.77609375 8.34605469 -8.8021875 8.50460938 -9.859375 8.66796875 C-12.93354367 8.99297414 -15.9113924 9.06010763 -19 9 C-19.33 8.34 -19.66 7.68 -20 7 C-22.34907875 6.31068656 -22.34907875 6.31068656 -25.0625 5.875 C-26.44115234 5.62363281 -26.44115234 5.62363281 -27.84765625 5.3671875 C-28.55792969 5.24601562 -29.26820312 5.12484375 -30 5 C-30 4.67 -30 4.34 -30 4 C-22.48695652 3.87478261 -22.48695652 3.87478261 -19.8125 4.5625 C-17.30576064 5.16757502 -15.5212435 4.56027633 -13 4 C-11.47965301 3.86921746 -9.95875921 3.74470564 -8.4375 3.625 C-4.82519037 3.25774852 -2.64825484 2.64825484 0 0 Z " fill="#B7C4DB" transform="translate(124,118)"/>
<path d="M0 0 C2.8605891 1.35937085 4.85927699 2.64520469 7 5 C4.86646311 5.55313919 2.81363261 6.02452202 0.625 6.3125 C-5.72700484 7.97612031 -8.53449328 11.74584465 -12 17 C-14.625 18.75 -14.625 18.75 -17 20 C-17.66 20.66 -18.32 21.32 -19 22 C-18.52456364 17.67973045 -15.73293295 15.13712271 -12.875 12.125 C-12.38088623 11.59487305 -11.88677246 11.06474609 -11.37768555 10.51855469 C-7.79907635 6.7248442 -4.07603043 3.26082434 0 0 Z " fill="#BCC9DD" transform="translate(95,71)"/>
<path d="M0 0 C1.32 0 2.64 0 4 0 C4.99 2.31 5.98 4.62 7 7 C7.99 4.69 8.98 2.38 10 0 C10.99 0.33 11.98 0.66 13 1 C12.02373969 3.31376679 11.04414868 5.62602063 10.0625 7.9375 C9.78470703 8.59685547 9.50691406 9.25621094 9.22070312 9.93554688 C7.11328125 14.88671875 7.11328125 14.88671875 6 16 C4.00041636 16.04080783 1.99954746 16.04254356 0 16 C0 15.01 0 14.02 0 13 C1.65 13 3.3 13 5 13 C4.72285156 12.39671875 4.44570312 11.7934375 4.16015625 11.171875 C3.79792969 10.37265625 3.43570313 9.5734375 3.0625 8.75 C2.70285156 7.96109375 2.34320313 7.1721875 1.97265625 6.359375 C1.09966721 4.24176302 0.48661492 2.23330638 0 0 Z " fill="#2A4069" transform="translate(115,144)"/>
<path d="M0 0 C0.33 0 0.66 0 1 0 C1.16435547 1.03060547 1.16435547 1.03060547 1.33203125 2.08203125 C1.49058594 2.98308594 1.64914063 3.88414063 1.8125 4.8125 C1.96332031 5.70582031 2.11414063 6.59914063 2.26953125 7.51953125 C3.08145005 10.27658173 3.69101726 11.32073983 6 13 C8.26393971 13.78356902 8.26393971 13.78356902 10.6875 14.1875 C11.49574219 14.34605469 12.30398437 14.50460938 13.13671875 14.66796875 C14.05904297 14.83232422 14.05904297 14.83232422 15 15 C15 15.99 15 16.98 15 18 C16.0725 17.649375 17.145 17.29875 18.25 16.9375 C22.92307692 15.76923077 22.92307692 15.76923077 26 17 C22.20947276 18.74893812 19.16690915 19.29655519 15 19.3125 C13.989375 19.32925781 12.97875 19.34601563 11.9375 19.36328125 C7.59143208 18.82580211 4.95905321 17.15747802 2.1875 13.8125 C1.795625 13.214375 1.40375 12.61625 1 12 C0.34 12.66 -0.32 13.32 -1 14 C-1.08333357 9.1666528 -0.95261487 4.76307437 0 0 Z " fill="#B6C5D5" transform="translate(65,108)"/>
<path d="M0 0 C1.423125 -0.061875 2.84625 -0.12375 4.3125 -0.1875 C5.51326172 -0.23970703 5.51326172 -0.23970703 6.73828125 -0.29296875 C9 0 9 0 10.78125 1.21875 C12.35672932 3.52137362 12.30765272 4.92398744 12.1875 7.6875 C12.16042969 8.49574219 12.13335937 9.30398437 12.10546875 10.13671875 C12.07066406 10.75160156 12.03585938 11.36648437 12 12 C11.01 12 10.02 12 9 12 C8.67 9.36 8.34 6.72 8 4 C6.68 3.67 5.36 3.34 4 3 C3.67 5.97 3.34 8.94 3 12 C2.01 12 1.02 12 0 12 C0 8.04 0 4.08 0 0 Z " fill="#233860" transform="translate(82,144)"/>
<path d="M0 0 C0.33 0 0.66 0 1 0 C1.125 7.75 1.125 7.75 0 10 C-4.12751449 9.39301257 -7.3321148 7.96189209 -11 6 C-10.34 5.01 -9.68 4.02 -9 3 C-6.67284 2.62599214 -4.33882138 2.29235267 -2 2 C-1.34 1.34 -0.68 0.68 0 0 Z " fill="#BAC8DA" transform="translate(111,109)"/>
<path d="M0 0 C0.81210938 0.41572266 0.81210938 0.41572266 1.640625 0.83984375 C-2.359375 5.50651042 -6.359375 10.17317708 -10.359375 14.83984375 C-10.689375 13.84984375 -11.019375 12.85984375 -11.359375 11.83984375 C-12.019375 11.50984375 -12.679375 11.17984375 -13.359375 10.83984375 C-11.62399377 8.96982087 -9.8734415 7.11996283 -8.109375 5.27734375 C-7.37267578 4.47780273 -7.37267578 4.47780273 -6.62109375 3.66210938 C-2.88743798 -0.19600158 -2.88743798 -0.19600158 0 0 Z " fill="#555AA6" transform="translate(89.359375,73.16015625)"/>
<path d="M0 0 C0.90105469 0.01804688 1.80210938 0.03609375 2.73046875 0.0546875 C3.41753906 0.07789063 4.10460937 0.10109375 4.8125 0.125 C4.8125 1.115 4.8125 2.105 4.8125 3.125 C1.83398438 3.46679688 1.83398438 3.46679688 -1.14453125 3.80859375 C-3.38146393 4.09670735 -3.38146393 4.09670735 -6.1875 5.125 C-6.5175 6.775 -6.8475 8.425 -7.1875 10.125 C-7.5175 9.135 -7.8475 8.145 -8.1875 7.125 C-8.8475 7.125 -9.5075 7.125 -10.1875 7.125 C-8.21737025 1.36615921 -6.0592548 -0.15738324 0 0 Z " fill="#5D5BAC" transform="translate(77.1875,60.875)"/>
<path d="M0 0 C3.3 0 6.6 0 10 0 C10 0.33 10 0.66 10 1 C7.36 1 4.72 1 2 1 C2 2.98 2 4.96 2 7 C4.64 7 7.28 7 10 7 C10 7.66 10 8.32 10 9 C7.36 9 4.72 9 2 9 C2 10.98 2 12.96 2 15 C1.34 15 0.68 15 0 15 C0 10.05 0 5.1 0 0 Z " fill="#1A305F" transform="translate(104,141)"/>
<path d="M0 0 C0.99 0.66 1.98 1.32 3 2 C3.59766769 5.84214944 3.30805554 7.52198278 1.1875 10.8125 C-1 13 -1 13 -4 14 C-4.99 13.34 -5.98 12.68 -7 12 C-6.21625 11.505 -5.4325 11.01 -4.625 10.5 C-1.09968551 7.14255763 -0.86663179 4.72708251 0 0 Z " fill="#6E60CF" transform="translate(123,108)"/>
<path d="M0 0 C2.73919348 5.47838695 5.45607904 11.83556248 6 18 C5.34 18.99 4.68 19.98 4 21 C3.46605821 19.5882217 2.94834896 18.17029756 2.4375 16.75 C2.14746094 15.96109375 1.85742188 15.1721875 1.55859375 14.359375 C0.95477163 11.80896548 1.1526068 10.44677771 2 8 C1.01 8.33 0.02 8.66 -1 9 C-0.67 6.03 -0.34 3.06 0 0 Z " fill="#C8D3E3" transform="translate(65,75)"/>
<path d="M0 0 C2.0625 1.875 2.0625 1.875 2.5 5.3125 C2.11751836 8.42699332 1.72713715 10.27400445 0.0625 12.875 C0.145 11.6375 0.2275 10.4 0.3125 9.125 C0.30157335 6.03822163 0.20403661 5.08730491 -1.5625 2.4375 C-4.3747406 0.58734171 -6.61010127 0.17749079 -9.9375 -0.125 C-9.9375 0.535 -9.9375 1.195 -9.9375 1.875 C-11.5875 1.875 -13.2375 1.875 -14.9375 1.875 C-11.11283944 -3.86199084 -5.80854447 -2.22454894 0 0 Z " fill="#CCDDE8" transform="translate(119.9375,71.125)"/>
<path d="M0 0 C3.16115776 1.36983503 3.9927092 1.9890638 6 5 C5.67 5.66 5.34 6.32 5 7 C2.35139573 7.59355614 -0.29197322 7.74209269 -3 8 C-2.45276317 4.62537285 -1.9451 2.91765 0 0 Z " fill="#B1C1D5" transform="translate(73,97)"/>
<path d="M0 0 C-0.1875 1.8125 -0.1875 1.8125 -1 4 C-3.90696599 6.14197494 -5.35521088 7 -9 7 C-9 6.34 -9 5.68 -9 5 C-11.64 5 -14.28 5 -17 5 C-17 4.67 -17 4.34 -17 4 C-16.40832031 3.96261719 -15.81664063 3.92523438 -15.20703125 3.88671875 C-9.66441815 3.42558781 -5.0912493 0 0 0 Z " fill="#1E3A6D" transform="translate(93,115)"/>
<path d="M0 0 C0.99 0 1.98 0 3 0 C3.33 4.29 3.66 8.58 4 13 C3.34 13 2.68 13 2 13 C2 12.01 2 11.02 2 10 C1.34 10 0.68 10 0 10 C-1.125 3.375 -1.125 3.375 0 0 Z " fill="#52509E" transform="translate(66,68)"/>
<path d="M0 0 C3.17806696 4.23742262 3.82491149 5.83488888 4 11 C3.22807105 13.52720688 2.20926512 15.62984037 1 18 C0.67 18 0.34 18 0 18 C0 12.06 0 6.12 0 0 Z " fill="#D5E6EE" transform="translate(128,62)"/>
<path d="M0 0 C1.65 0.33 3.3 0.66 5 1 C5.33 3.31 5.66 5.62 6 8 C2.48283697 8 1.62878252 7.17554415 -1 5 C-0.67 3.35 -0.34 1.7 0 0 Z " fill="#5F56B7" transform="translate(106,101)"/>
<path d="M0 0 C3.1166231 2.54996436 4.01692052 5.14330357 5 9 C5.125 12.375 5.125 12.375 5 15 C1.91503342 11.50370454 0.06819964 8.56412572 -1 4 C-0.625 1.625 -0.625 1.625 0 0 Z " fill="#7073CF" transform="translate(122,98)"/>
<path d="M0 0 C1.62600941 0.0870005 3.25089678 0.1951781 4.875 0.3125 C5.77992187 0.37050781 6.68484375 0.42851563 7.6171875 0.48828125 C10 1 10 1 12 4 C9.16443413 5.41778293 7.0091294 4.86257622 3.875 4.5625 C2.77929688 4.46066406 1.68359375 4.35882813 0.5546875 4.25390625 C-0.28835937 4.17011719 -1.13140625 4.08632812 -2 4 C-1.34 3.67 -0.68 3.34 0 3 C0 2.01 0 1.02 0 0 Z " fill="#5450A1" transform="translate(107,118)"/>
<path d="M0 0 C1.125 1.75 1.125 1.75 2 4 C1.1875 5.875 1.1875 5.875 0 8 C-0.38290462 9.99110401 -0.72604615 11.99100513 -1 14 C-1.66 13.01 -2.32 12.02 -3 11 C-3.66 10.67 -4.32 10.34 -5 10 C-4.54857119 8.70590408 -4.08858979 7.41478941 -3.625 6.125 C-3.36976562 5.40570313 -3.11453125 4.68640625 -2.8515625 3.9453125 C-2 2 -2 2 0 0 Z " fill="#1D3A70" transform="translate(71,94)"/>
<path d="M0 0 C2.35095039 1.5428112 3.62656076 2.85476663 5 5.3125 C4.6875 7.5625 4.6875 7.5625 4 9.3125 C3.01 9.3125 2.02 9.3125 1 9.3125 C1 7.3325 1 5.3525 1 3.3125 C0.195625 3.18875 -0.60875 3.065 -1.4375 2.9375 C-2.283125 2.73125 -3.12875 2.525 -4 2.3125 C-4.33 1.6525 -4.66 0.9925 -5 0.3125 C-2 -0.6875 -2 -0.6875 0 0 Z " fill="#B5C6DD" transform="translate(111,84.6875)"/>
<path d="M0 0 C0.47050781 0.42152344 0.94101563 0.84304687 1.42578125 1.27734375 C2.35970703 2.09912109 2.35970703 2.09912109 3.3125 2.9375 C4.23482422 3.75541016 4.23482422 3.75541016 5.17578125 4.58984375 C7.05241958 6.20081559 7.05241958 6.20081559 10 7 C10 7.99 10 8.98 10 10 C8.35 10 6.7 10 5 10 C5 9.34 5 8.68 5 8 C3.68 7.67 2.36 7.34 1 7 C0.67 4.69 0.34 2.38 0 0 Z " fill="#C5D1E0" transform="translate(102,81)"/>
<path d="M0 0 C2.31 0 4.62 0 7 0 C7.37125 1.2065625 7.37125 1.2065625 7.75 2.4375 C8.72238859 5.171081 8.72238859 5.171081 11.125 5.8125 C12.053125 5.9053125 12.053125 5.9053125 13 6 C13 8.31 13 10.62 13 13 C12.67 11.68 12.34 10.36 12 9 C11.401875 8.9175 10.80375 8.835 10.1875 8.75 C7.34974589 7.77705573 6.50323933 6.55550687 5 4 C5 3.01 5 2.02 5 1 C3.35 1 1.7 1 0 1 C0 0.67 0 0.34 0 0 Z " fill="#ABC9E0" transform="translate(110,64)"/>
<path d="M0 0 C0.99 0.33 1.98 0.66 3 1 C2.24074219 1.66386719 1.48148438 2.32773438 0.69921875 3.01171875 C-0.30498964 3.90330564 -1.30887907 4.79525188 -2.3125 5.6875 C-3.29863281 6.55761719 -4.28476563 7.42773438 -5.30078125 8.32421875 C-7.76993958 10.77193721 -9.3868157 12.94430961 -11 16 C-11.33 15.01 -11.66 14.02 -12 13 C-10.56354149 11.39490066 -9.12579294 9.79095576 -7.6875 8.1875 C-6.88699219 7.29417969 -6.08648437 6.40085937 -5.26171875 5.48046875 C-3.54775419 3.60073214 -1.82122396 1.77407253 0 0 Z " fill="#DBE6EB" transform="translate(92,79)"/>
<path d="M0 0 C0.99 0 1.98 0 3 0 C3 3.96 3 7.92 3 12 C2.01 12 1.02 12 0 12 C0 8.04 0 4.08 0 0 Z " fill="#273C63" transform="translate(97,144)"/>
<path d="M0 0 C2 1 2 1 4 4 C3.65175689 7.48243113 1.91526965 10.12709552 0 13 C-0.33 13 -0.66 13 -1 13 C-1.02708567 11.39592672 -1.04643483 9.7917215 -1.0625 8.1875 C-1.07410156 7.29417969 -1.08570312 6.40085937 -1.09765625 5.48046875 C-1 3 -1 3 0 0 Z " fill="#D3DFEB" transform="translate(127,110)"/>
<path d="M0 0 C1.32 0 2.64 0 4 0 C4 0.99 4 1.98 4 3 C5.0725 2.649375 6.145 2.29875 7.25 1.9375 C11.92307692 0.76923077 11.92307692 0.76923077 15 2 C11.07142246 3.85131483 8.01224888 4.22004943 3.6875 4.125 C2.61886719 4.10695313 1.55023438 4.08890625 0.44921875 4.0703125 C-0.35902344 4.04710938 -1.16726562 4.02390625 -2 4 C-1.33333333 2.66666667 -0.66666667 1.33333333 0 0 Z " fill="#BDCDDB" transform="translate(76,123)"/>
<path d="M0 0 C1.8125 0.8125 1.8125 0.8125 4.8125 2.8125 C2.37862247 4.02943876 0.39411154 4.13209896 -2.3125 4.375 C-3.22257812 4.45878906 -4.13265625 4.54257813 -5.0703125 4.62890625 C-6.11832031 4.71978516 -6.11832031 4.71978516 -7.1875 4.8125 C-7.5175 4.1525 -7.8475 3.4925 -8.1875 2.8125 C-2.81312066 -0.24112463 -2.81312066 -0.24112463 0 0 Z " fill="#A4B5D1" transform="translate(97.1875,117.1875)"/>
<path d="M0 0 C-0.56371414 3.26954202 -1.49962266 4.82575883 -4 7 C-4.33 6.34 -4.66 5.68 -5 5 C-7.02463255 4.34786708 -7.02463255 4.34786708 -9 4 C-9.33 4.99 -9.66 5.98 -10 7 C-10.66 5.68 -11.32 4.36 -12 3 C-10.906875 2.87625 -9.81375 2.7525 -8.6875 2.625 C-5.33817502 2.0573178 -3.19116366 0 0 0 Z " fill="#6C6CC5" transform="translate(115,97)"/>
<path d="M0 0 C4.75 0.75 4.75 0.75 7 3 C6.34 3 5.68 3 5 3 C5 3.66 5 4.32 5 5 C0.71 4.67 -3.58 4.34 -8 4 C-8 3.67 -8 3.34 -8 3 C-6.865625 2.87625 -5.73125 2.7525 -4.5625 2.625 C-3.386875 2.41875 -2.21125 2.2125 -1 2 C-0.67 1.34 -0.34 0.68 0 0 Z " fill="#7381CD" transform="translate(82,61)"/>
<path d="M0 0 C4.26339067 -0.07105651 7.87943108 -0.10938394 12 1 C12.66 0.67 13.32 0.34 14 0 C14 0.99 14 1.98 14 3 C14.66 3 15.32 3 16 3 C16 3.66 16 4.32 16 5 C14.35 5 12.7 5 11 5 C10.67 4.34 10.34 3.68 10 3 C7.65092125 2.31068656 7.65092125 2.31068656 4.9375 1.875 C4.01839844 1.70742187 3.09929687 1.53984375 2.15234375 1.3671875 C1.44207031 1.24601562 0.73179688 1.12484375 0 1 C0 0.67 0 0.34 0 0 Z " fill="#BFCEDC" transform="translate(94,122)"/>
<path d="M0 0 C2.86207152 1.28299758 5.0245088 2.530636 7 5 C7 5.99 7 6.98 7 8 C4.04590299 6.62845496 1.55991624 5.01136276 -1 3 C-0.67 2.01 -0.34 1.02 0 0 Z " fill="#324181" transform="translate(82,102)"/>
<path d="M0 0 C3.3 0.33 6.6 0.66 10 1 C10 1.66 10 2.32 10 3 C8.54364629 3.22174933 7.08477044 3.42698698 5.625 3.625 C4.81289062 3.74101563 4.00078125 3.85703125 3.1640625 3.9765625 C2.44992188 3.98429687 1.73578125 3.99203125 1 4 C0.34 3.34 -0.32 2.68 -1 2 C-0.67 1.34 -0.34 0.68 0 0 Z " fill="#0A2A5A" transform="translate(74,119)"/>
<path d="M0 0 C0.91007812 0.10183594 1.82015625 0.20367187 2.7578125 0.30859375 C3.45648438 0.39238281 4.15515625 0.47617188 4.875 0.5625 C3.52734375 2.08203125 3.52734375 2.08203125 1.875 3.5625 C-0.5625 3.25 -0.5625 3.25 -3.125 2.5625 C-4.445 2.5625 -5.765 2.5625 -7.125 2.5625 C-7.125 1.9025 -7.125 1.2425 -7.125 0.5625 C-4.50184968 -0.74907516 -2.89466564 -0.33399988 0 0 Z " fill="#D1E0E8" transform="translate(114.125,127.4375)"/>
<path d="M0 0 C1.65 0.33 3.3 0.66 5 1 C4.67 2.65 4.34 4.3 4 6 C3.01 6.33 2.02 6.66 1 7 C0.34 6.67 -0.32 6.34 -1 6 C-0.67 4.02 -0.34 2.04 0 0 Z " fill="#314283" transform="translate(71,89)"/>
<path d="M0 0 C2.125 0.375 2.125 0.375 4 1 C2.35 2.98 0.7 4.96 -1 7 C-1.66 6.67 -2.32 6.34 -3 6 C-2.42655063 3.13275314 -2.1385485 2.1385485 0 0 Z " fill="#5B67BE" transform="translate(87,73)"/>
<path d="M0 0 C0 0.99 0 1.98 0 3 C-4.455 3.495 -4.455 3.495 -9 4 C-9.33 3.34 -9.66 2.68 -10 2 C-3.375 -1.125 -3.375 -1.125 0 0 Z " fill="#5EA9DA" transform="translate(110,62)"/>
<path d="M0 0 C0.99 0.33 1.98 0.66 3 1 C2.34 2.32 1.68 3.64 1 5 C-0.98 5 -2.96 5 -5 5 C-5 4.01 -5 3.02 -5 2 C-3.35 2 -1.7 2 0 2 C0 1.34 0 0.68 0 0 Z " fill="#3E5378" transform="translate(120,155)"/>
<path d="M0 0 C0.33 0.66 0.66 1.32 1 2 C-2.4019487 4.09350689 -5.05272412 4.17942163 -9 4 C-9 3.01 -9 2.02 -9 1 C-4.545 0.505 -4.545 0.505 0 0 Z " fill="#E2EEF3" transform="translate(116,142)"/>
<path d="M0 0 C-0.25 1.875 -0.25 1.875 -1 4 C-3.0625 5.25 -3.0625 5.25 -5 6 C-5.99 5.34 -6.98 4.68 -8 4 C-3.375 0 -3.375 0 0 0 Z " fill="#6153C4" transform="translate(124,116)"/>
<path d="M0 0 C0.33 0 0.66 0 1 0 C1.17835515 4.54805635 0.99785435 7.8794254 -1 12 C-3 9 -3 9 -2.75 6.5625 C-2.05282249 4.18047686 -1.20252143 2.16453858 0 0 Z " fill="#BFD2E5" transform="translate(124,84)"/>
<path d="M0 0 C2.12038635 2.61514317 4.13091744 5.19637616 6 8 C6.99 8.66 7.98 9.32 9 10 C5.89903219 9.65544802 4.20062862 9.15182706 1.6875 7.25 C-0.30929204 4.58761061 -0.36116409 3.25047681 0 0 Z " fill="#CDDCE4" transform="translate(65,117)"/>
<path d="M0 0 C0.94875 0.04125 1.8975 0.0825 2.875 0.125 C2.545 1.115 2.215 2.105 1.875 3.125 C-0.5 3.75 -0.5 3.75 -3.125 4.125 C-3.785 3.465 -4.445 2.805 -5.125 2.125 C-3.125 0.125 -3.125 0.125 0 0 Z " fill="#A1B0CE" transform="translate(105.125,111.875)"/>
<path d="M0 0 C2.88437779 1.29299694 4.87219421 2.65941363 7 5 C5.68 5.33 4.36 5.66 3 6 C1.68 4.35 0.36 2.7 -1 1 C-0.67 0.67 -0.34 0.34 0 0 Z " fill="#B0C3DC" transform="translate(95,71)"/>
<path d="M0 0 C0.99 1.32 1.98 2.64 3 4 C0.525 5.485 0.525 5.485 -2 7 C-2.6875 5.1875 -2.6875 5.1875 -3 3 C-1.5625 1.25 -1.5625 1.25 0 0 Z " fill="#BDC8DF" transform="translate(115,99)"/>
<path d="M0 0 C0.66 0.66 1.32 1.32 2 2 C1.625 4.625 1.625 4.625 1 7 C-0.32 6.67 -1.64 6.34 -3 6 C-1.125 1.125 -1.125 1.125 0 0 Z " fill="#569ED9" transform="translate(122,81)"/>
<path d="M0 0 C2.31 0 4.62 0 7 0 C7 0.99 7 1.98 7 3 C5.02 3 3.04 3 1 3 C0.67 2.01 0.34 1.02 0 0 Z " fill="#515AC2" transform="translate(75,61)"/>
<path d="M0 0 C0.99 0.99 1.98 1.98 3 3 C2.34 4.98 1.68 6.96 1 9 C0.67 9 0.34 9 0 9 C-0.87890625 2.84765625 -0.87890625 2.84765625 -1 1 C-0.67 0.67 -0.34 0.34 0 0 Z " fill="#6777D4" transform="translate(122,98)"/>
<path d="M0 0 C0.66 0 1.32 0 2 0 C2 0.99 2 1.98 2 3 C2.99 3 3.98 3 5 3 C5.33 3.99 5.66 4.98 6 6 C4.35 5.67 2.7 5.34 1 5 C0.67 3.35 0.34 1.7 0 0 Z " fill="#57A6D9" transform="translate(117,64)"/>
<path d="M0 0 C0.33 0.99 0.66 1.98 1 3 C-0.98 3.99 -0.98 3.99 -3 5 C-3.99 4.01 -4.98 3.02 -6 2 C-3 0 -3 0 0 0 Z " fill="#6668BA" transform="translate(75,61)"/>
<path d="M0 0 C0.66 0.33 1.32 0.66 2 1 C1.67 1.66 1.34 2.32 1 3 C3.31 3 5.62 3 8 3 C8 3.33 8 3.66 8 4 C3.545 4.495 3.545 4.495 -1 5 C-1.33 4.34 -1.66 3.68 -2 3 C-1.34 2.01 -0.68 1.02 0 0 Z " fill="#DCE9ED" transform="translate(79,130)"/>
<path d="M0 0 C1.65 0.33 3.3 0.66 5 1 C5 1.66 5 2.32 5 3 C3.68 3 2.36 3 1 3 C0.67 3.66 0.34 4.32 0 5 C-0.33 4.01 -0.66 3.02 -1 2 C-0.67 1.34 -0.34 0.68 0 0 Z " fill="#434795" transform="translate(101,108)"/>
<path d="M0 0 C0.33 0.99 0.66 1.98 1 3 C-0.65 4.65 -2.3 6.3 -4 8 C-3.50168276 4.31245243 -2.89932357 2.39509338 0 0 Z " fill="#D9E5EB" transform="translate(117,106)"/>
</svg>
